<svg id="Layer_1" data-name="Layer 1" xmlns="http://www.w3.org/2000/svg" viewBox="0 0 152.83 47.96"><defs><style>.cls-1{fill:#231f20;}.cls-2{fill:#6aaa45;}</style></defs><title>dogsafe-color</title><path class="cls-1" d="M153.28,2.37c-1.24-1.54-1.8-.85-.9,0,.6.56,0,2.05-.07,2.28-2.95,6.77-5.43,5.91-9.41,6.37a2.37,2.37,0,0,0-.65-.09c-.78,0-1.55,0-2.32,0a8.36,8.36,0,0,0-3.49.71,3.69,3.69,0,0,0-1.38,1.28c-1.3,2.06-2.9,2.92-4.24,4.62-.21.27-1.86,1.48-2.06,1.75-.27-.5-.06-1.25-.36-1.69a27.23,27.23,0,0,0-2.48-1.78c-.9-.43-.63.36-1.55-.05a6.59,6.59,0,0,0-2.77-.67,8,8,0,0,0-2.59.8c-2.33,1.53-1.18,1.65-1.65,2.17-.78.85-4.67-.09-4.74,1a2.59,2.59,0,0,0,1.26,3c1,.44,2.59,2,4.87,1.46,1.08-.49.22.15.22.15a1,1,0,0,1-.56.45,5.46,5.46,0,0,0-2.49.13c-.84.39-2.15.86-1.57,1.3a1.16,1.16,0,0,0,.91.17c0,.14.3.24.37.41.6.17,3.49-.28,4.08.21a.65.65,0,0,1,.3.65c-.55,2.45.16,2.66-.1,3.35-.79,2-.89,4.06-1.65,4.83a19.5,19.5,0,0,1-1.9,1.59,5.88,5.88,0,0,1-1.64,1.27,33.77,33.77,0,0,1-3.8,1.25,5.55,5.55,0,0,0-2.22.67,7.51,7.51,0,0,0-1.5.82c-.46.42-.86,1.5-.34,1.83,1.63,1,4.57.45,4.49-.41.57-.27,3.43-1.42,4-1.62.26-.08,1.58-1,1.87-1.15,1.18-.6,2.2-.1,3.38-.69a7.45,7.45,0,0,0,1.26-1.25c.74-.74.65-1.64,1.35-1.7.53-.23,3.51.54,5.15-.36.12,4-.78,7.37-1.46,7.75a13.06,13.06,0,0,0-.5,1.77,13.07,13.07,0,0,0-.92,1.52c-.27.53.63,2.49,1.74,2.25,1.1,1.44,2,.18,3.27-.41.64-.1,0-1.69.08-2.29-1.27-1.66,1.73-9,1.72-10.07,0-.19-.63-1.08,1.46-2,3-3.22,2.17.56,1.61,2-1.1.62-1.91.78-1.53,1.79.37.53,2.89.58,3.25.23s.13-1.3.6-1.84c.16-.18.37-2.93.46-3.16.48-1.14-.19-1.09-.15-1.76a3.36,3.36,0,0,1,.36-1.55c.46-.82.43-.32.85-1.16a20.07,20.07,0,0,1,2-2.8c.16-.21.54,1.34.7,1.59.66,1.07,1.36,2.12,2,3.2a5,5,0,0,1,.56,1.54c.2,1.29.32,2.6.53,3.9.18,1.1.68,2.06.12,3a3.59,3.59,0,0,0-.31.62c-.2.55.46,1,.93,1.08.9.82,1.91.12,2.85-.3.37-.16.22-.77.15-1.19s-.26-.28-.41-.69a17.63,17.63,0,0,1-.85-1.9c-.06-.18.11-.42.07-.6-.21-.91-.41-1.83-.69-2.72a7.46,7.46,0,0,1-.26-2.57,11.53,11.53,0,0,0-.2-3.84,4.22,4.22,0,0,1,0-2.31,9.71,9.71,0,0,0,.4-1.47,22.63,22.63,0,0,0,.61-3.51,18.66,18.66,0,0,0-1.6-6.25C150.51,13.79,155.31,4.91,153.28,2.37Z" transform="translate(-0.93 -1.45)"/><path class="cls-2" d="M118.49,41.55a2.86,2.86,0,1,0,2.86,2.86A2.86,2.86,0,0,0,118.49,41.55Z" transform="translate(-0.93 -1.45)"/><path class="cls-1" d="M3.12,32.89c-.56-.08-1.12-.46-1.07-1a57.49,57.49,0,0,0,0-11.54c-.07-.58.84-1,1.37-1.06a36.85,36.85,0,0,1,6.11-.08c3.93.05,9.48.74,9.41,6.54-.06,5.48-4.54,7-8.75,7.28A32.94,32.94,0,0,1,3.12,32.89Zm7.55-2.54c.58-.56.84-2.23.79-4.31-.1-3.19-.76-3.5-1.19-3.75S9,22.06,9,22.62a47.86,47.86,0,0,0,0,7.76C9,31.06,9.81,31.14,10.67,30.35Z" transform="translate(-0.93 -1.45)"/><path class="cls-1" d="M19.59,27.84c0-3.09,3.15-5.55,7-5.55s6.92,2.46,6.92,5.55-3.12,5.55-6.92,5.55S19.59,30.91,19.59,27.84Zm8.27-.44c-.05-1.65-.64-3.75-1.35-3.7s-1.24,1.85-1.31,3.7c-.06,1.49.43,4.64,1.42,4.59S27.91,29.2,27.86,27.4Z" transform="translate(-0.93 -1.45)"/><path class="cls-1" d="M50.4,32.46c-1.7-.33-1.63-1.93-1.73-2.51-.17-1,.18-1.27.86-1a11,11,0,0,0,4.09,1.24,7.76,7.76,0,0,0,2.91-.08c.79-.28.91-1,0-1.39-1.09-.48-3-.94-4.49-1.45s-3.24-1.59-3.24-3.57c0-1.8,1.85-4.41,6.92-4.59a21.91,21.91,0,0,1,7.3.66c.5.2,1.57.43.88,1.09-.3.36-1.77,1.57-2.63,1.17A8.79,8.79,0,0,0,58,21.45c-1.07,0-1.52,1.3-.31,1.7,1.55.54,3,.71,4.62,1.22,2.25.71,3.8,2.23,3.19,4.77-.43,1.85-2.66,3.92-8,4A35,35,0,0,1,50.4,32.46Z" transform="translate(-0.93 -1.45)"/><path class="cls-1" d="M81,32.58c-1.27.48-1.57.79-5.35.66a1.61,1.61,0,0,1-1.37-.91c-.1-.2-.12-.2-.38,0-1.14.66-5.34,2-7.22-.28-1.39-1.77.2-3.75,2.1-5.07,1.4-1,4-1.5,4.19-2.31.1-.53-.28-.73-.81-.86a2.46,2.46,0,0,0-.92-.05c-.33,0-.66.05-.76-.25a.66.66,0,0,1,.43-.79,31.24,31.24,0,0,1,6.64,0,2.34,2.34,0,0,1,2.06,2.49,54.73,54.73,0,0,0,0,5.75c0,1,.83,1,1.47.94C81.35,31.82,81.48,32.38,81,32.58Zm-8.77-3.7a1.88,1.88,0,0,0,.74,1.83.86.86,0,0,0,1.16-.31c.08-1.26,0-2,.05-3.14,0-.58-.76-.38-1.09-.18A2.2,2.2,0,0,0,72.2,28.88Z" transform="translate(-0.93 -1.45)"/><path class="cls-1" d="M87.44,27c-.48,0-.48.28-.48.58S87,31.64,87,31.7c0,.4,0,1-.44,1.14a8.21,8.21,0,0,1-4.1.1c-.41-.1-.56-.51-.56-.94,0-1.93,0,.08.18-5.88.1-3-.15-5.25,2.25-6.69A8.81,8.81,0,0,1,91.45,19c.4.17.63.73.35,1s-1.27.28-1.72.26c-.94,0-3.1.23-3.1,4.36,0,.38,0,.71.46.66.25,0,3.09-.13,2.94.38A1.78,1.78,0,0,1,88.81,27Z" transform="translate(-0.93 -1.45)"/><path class="cls-1" d="M101.74,32.89a4.12,4.12,0,0,1-1.44.3c-3.75.28-9.74-1.42-9.56-5.55.15-3.52,2.82-4.82,5.7-5.17,3.53-.43,6.42.94,7.74,2.79.55.76.53,1.92-.94,1.92-1.95,0-4.31.08-5.17.08-1,0-1.73.4-1.7,1.22.07,1.82,4.16,3,7.2,1.62.25-.1.28.33.18.53A5,5,0,0,1,101.74,32.89Zm-3.27-6.95c.61,0,.59-.45.38-.66s-.4-.35-1.34-.35a1.51,1.51,0,0,0-1.29.45c-.08.18,0,.56.45.56Z" transform="translate(-0.93 -1.45)"/><path class="cls-1" d="M47.64,29.22a28.64,28.64,0,0,1,.28-5.87c0-.54-.26-.78-.81-.83a29.27,29.27,0,0,0-3.86,0c-.28,0-.46.21-.43.36s-.08.24-.33.08a6.15,6.15,0,0,0-7,1.43c-1.75,2-1.16,5.46.59,7.47,2.13,2.46,5.79,1.25,5.79,1.25a.42.42,0,0,1,.63.38,4.28,4.28,0,0,1-3.13,3.26,4.76,4.76,0,0,1-3.16-.18c-.27-.08-.52.13-.58.47a.67.67,0,0,0,.47.77,15.37,15.37,0,0,0,4.58.29c4-.37,7-3.84,7-5.4,0-1.16,0-2.31,0-3.42C47.63,29.26,47.64,29.24,47.64,29.22ZM42.31,31c-.13.62-.81,1.24-1.5.2a6.9,6.9,0,0,1-.1-5.95c1-1.68,1.72-.46,1.72.36A37.68,37.68,0,0,1,42.31,31Z" transform="translate(-0.93 -1.45)"/><path class="cls-2" d="M1.62,48.29a2.24,2.24,0,0,1-.69-1.74V41c0-.19.17-.29.51-.29h.24c.34,0,.5.1.5.29v5.5a1.23,1.23,0,0,0,.39.94,1.37,1.37,0,0,0,1,.37,1.34,1.34,0,0,0,1-.37,1.22,1.22,0,0,0,.38-.94V41c0-.19.17-.29.51-.29h.24c.34,0,.51.1.51.29v5.51a2.24,2.24,0,0,1-.69,1.74,2.82,2.82,0,0,1-1.94.62A2.82,2.82,0,0,1,1.62,48.29Z" transform="translate(-0.93 -1.45)"/><path class="cls-2" d="M7.68,48.56V41c0-.19.17-.29.51-.29h.27a.68.68,0,0,1,.31.06A.37.37,0,0,1,9,41l2.49,4.74a6.53,6.53,0,0,1,.33.78l.05,0a3.85,3.85,0,0,1-.09-.8V41c0-.19.17-.29.51-.29h.17c.34,0,.51.1.51.29v7.52c0,.19-.17.29-.51.29h-.23c-.25,0-.41-.07-.47-.22L9.13,43.72a4,4,0,0,1-.3-.72l-.06,0a3.79,3.79,0,0,1,.1.77v4.77c0,.19-.17.29-.51.29H8.19C7.85,48.85,7.68,48.75,7.68,48.56Z" transform="translate(-0.93 -1.45)"/><path class="cls-2" d="M14.6,48.74a.48.48,0,0,1-.08-.29V41.16a.46.46,0,0,1,.08-.29.37.37,0,0,1,.27-.09h2q2.89,0,2.9,4A5,5,0,0,1,19,47.87a2.57,2.57,0,0,1-2.15,1h-2A.37.37,0,0,1,14.6,48.74Zm2.23-1a1.34,1.34,0,0,0,1.22-.7,4.48,4.48,0,0,0,.43-2.27c0-2-.55-3-1.65-3h-1v5.93Z" transform="translate(-0.93 -1.45)"/><path class="cls-2" d="M21.24,48.74a.48.48,0,0,1-.08-.29V41.16a.46.46,0,0,1,.08-.29.33.33,0,0,1,.26-.09h3.34c.17,0,.25.14.25.41v.23c0,.28-.08.42-.25.42H22.41v2.34h2.18c.16,0,.25.14.25.42v.23c0,.27-.09.41-.25.41H22.41v2.53h2.43a.19.19,0,0,1,.19.1.6.6,0,0,1,.06.31v.23a.65.65,0,0,1-.06.32.19.19,0,0,1-.19.1H21.5A.33.33,0,0,1,21.24,48.74Z" transform="translate(-0.93 -1.45)"/><path class="cls-2" d="M26.39,48.56v-7.4c0-.26.12-.38.36-.38h1.77a2.52,2.52,0,0,1,1.69.49,2.41,2.41,0,0,1-.5,3.56v0a1.07,1.07,0,0,1,.43.46,5.13,5.13,0,0,1,.37.9l.71,2.24a.29.29,0,0,1,0,.09.19.19,0,0,1,0,.07c0,.15-.18.22-.53.22h-.26a.81.81,0,0,1-.33-.06.27.27,0,0,1-.17-.16l-.67-2.24a1.62,1.62,0,0,0-.4-.74,1,1,0,0,0-.66-.19h-.59v3.1c0,.19-.18.29-.52.29h-.22C26.56,48.85,26.39,48.75,26.39,48.56Zm2.26-4.21a.74.74,0,0,0,.62-.37,1.55,1.55,0,0,0,.26-.93,1.4,1.4,0,0,0-.25-.92.88.88,0,0,0-.69-.29h-1v2.51Z" transform="translate(-0.93 -1.45)"/><path class="cls-2" d="M37.11,44.72v3.33c0,.28-.22.49-.66.64a4.54,4.54,0,0,1-1.47.22,2.59,2.59,0,0,1-2.22-1A5.11,5.11,0,0,1,32,44.85a5.3,5.3,0,0,1,.76-3.13,2.68,2.68,0,0,1,2.29-1,4,4,0,0,1,.9.11,2.63,2.63,0,0,1,.73.3c.19.11.28.23.28.33a1,1,0,0,1-.18.48c-.12.2-.22.3-.31.3a.79.79,0,0,1-.24-.12,2.49,2.49,0,0,0-.49-.21,2.06,2.06,0,0,0-.64-.09,1.46,1.46,0,0,0-1.38.75,4.54,4.54,0,0,0-.43,2.23c0,2,.57,3,1.7,3a3.07,3.07,0,0,0,.88-.12V45.4H35c-.16,0-.25-.14-.25-.41v-.23c0-.28.09-.42.25-.42h1.76C37,44.34,37.11,44.47,37.11,44.72Z" transform="translate(-0.93 -1.45)"/><path class="cls-2" d="M38.64,48.56v-7.4c0-.26.12-.38.35-.38h1.78a2.54,2.54,0,0,1,1.69.49,2.41,2.41,0,0,1-.5,3.56v0a1.21,1.21,0,0,1,.43.46,6,6,0,0,1,.37.9l.71,2.24s0,.06,0,.09a.17.17,0,0,1,0,.07c0,.15-.17.22-.53.22h-.25a.81.81,0,0,1-.33-.06.32.32,0,0,1-.18-.16l-.66-2.24a1.72,1.72,0,0,0-.4-.74,1,1,0,0,0-.66-.19h-.6v3.1c0,.19-.17.29-.52.29h-.21C38.81,48.85,38.64,48.75,38.64,48.56Zm2.25-4.21a.74.74,0,0,0,.63-.37,1.62,1.62,0,0,0,.26-.93,1.46,1.46,0,0,0-.25-.92.89.89,0,0,0-.7-.29h-.95v2.51Z" transform="translate(-0.93 -1.45)"/><path class="cls-2" d="M45,47.89a5.31,5.31,0,0,1-.74-3.1q0-4.09,2.91-4.09t2.92,4.09q0,4.13-2.92,4.12A2.52,2.52,0,0,1,45,47.89Zm3.41-.78a5,5,0,0,0,.41-2.32,4.85,4.85,0,0,0-.41-2.3,1.42,1.42,0,0,0-2.46,0,5,5,0,0,0-.4,2.31A5,5,0,0,0,46,47.11a1.38,1.38,0,0,0,2.45,0Z" transform="translate(-0.93 -1.45)"/><path class="cls-2" d="M52,48.29a2.24,2.24,0,0,1-.69-1.74V41c0-.19.16-.29.5-.29h.24c.34,0,.51.1.51.29v5.5a1.26,1.26,0,0,0,.38.94,1.37,1.37,0,0,0,1,.37,1.34,1.34,0,0,0,1-.37,1.26,1.26,0,0,0,.38-.94V41c0-.19.17-.29.5-.29h.25c.33,0,.5.1.5.29v5.51a2.24,2.24,0,0,1-.69,1.74,3.33,3.33,0,0,1-3.87,0Z" transform="translate(-0.93 -1.45)"/><path class="cls-2" d="M58.1,48.56V41c0-.19.16-.29.5-.29h.28a.67.67,0,0,1,.3.06.34.34,0,0,1,.19.2l2.5,4.74a6.75,6.75,0,0,1,.32.78l.06,0a3.85,3.85,0,0,1-.09-.8V41c0-.19.16-.29.5-.29h.17c.34,0,.51.1.51.29v7.52c0,.19-.17.29-.51.29H62.6c-.25,0-.41-.07-.47-.22l-2.58-4.91a4,4,0,0,1-.3-.72l-.06,0a3.72,3.72,0,0,1,.09.77v4.77c0,.19-.17.29-.5.29H58.6C58.26,48.85,58.1,48.75,58.1,48.56Z" transform="translate(-0.93 -1.45)"/><path class="cls-2" d="M65,48.74a.48.48,0,0,1-.08-.29V41.16a.46.46,0,0,1,.08-.29.33.33,0,0,1,.26-.09h2c1.94,0,2.9,1.34,2.9,4a5.08,5.08,0,0,1-.74,3.07,2.58,2.58,0,0,1-2.16,1h-2A.33.33,0,0,1,65,48.74Zm2.23-1a1.34,1.34,0,0,0,1.22-.7,4.61,4.61,0,0,0,.42-2.27c0-2-.54-3-1.64-3h-1v5.93Z" transform="translate(-0.93 -1.45)"/><path class="cls-2" d="M73.15,48.56v-7.4a.46.46,0,0,1,.08-.29.33.33,0,0,1,.26-.09h3c.17,0,.25.14.25.41v.23c0,.28-.08.42-.25.42H74.4v2.34h2c.17,0,.25.14.25.42v.23c0,.27-.08.41-.25.41h-2v3.32c0,.19-.17.29-.5.29h-.24C73.32,48.85,73.15,48.75,73.15,48.56Z" transform="translate(-0.93 -1.45)"/><path class="cls-2" d="M78.09,48.74a.48.48,0,0,1-.08-.29V41.16a.46.46,0,0,1,.08-.29.37.37,0,0,1,.27-.09h3.33c.17,0,.26.14.26.41v.23c0,.28-.09.42-.26.42H79.27v2.34h2.17c.17,0,.25.14.25.42v.23c0,.27-.08.41-.25.41H79.27v2.53h2.42a.2.2,0,0,1,.2.1.6.6,0,0,1,.06.31v.23a.65.65,0,0,1-.06.32.2.2,0,0,1-.2.1H78.36A.37.37,0,0,1,78.09,48.74Z" transform="translate(-0.93 -1.45)"/><path class="cls-2" d="M83.21,48.56V41c0-.19.17-.29.51-.29H84a.68.68,0,0,1,.31.06.37.37,0,0,1,.19.2L87,45.75a6.53,6.53,0,0,1,.33.78l0,0a3.85,3.85,0,0,1-.09-.8V41c0-.19.17-.29.51-.29H88c.34,0,.51.1.51.29v7.52c0,.19-.17.29-.51.29h-.23c-.25,0-.41-.07-.47-.22l-2.59-4.91a4,4,0,0,1-.3-.72l-.06,0a3.19,3.19,0,0,1,.1.77v4.77c0,.19-.17.29-.51.29h-.17C83.38,48.85,83.21,48.75,83.21,48.56Z" transform="translate(-0.93 -1.45)"/><path class="cls-2" d="M90.49,47.91a5.31,5.31,0,0,1-.74-3.12,5.16,5.16,0,0,1,.75-3.08,2.65,2.65,0,0,1,2.29-1,4,4,0,0,1,.6,0,4.25,4.25,0,0,1,.52.14.35.35,0,0,1,.19.14.54.54,0,0,1,.05.24,1.75,1.75,0,0,1-.12.55c-.08.18-.17.24-.3.18a2.07,2.07,0,0,0-.92-.21,1.45,1.45,0,0,0-1.34.73A4.7,4.7,0,0,0,91,44.79a4.74,4.74,0,0,0,.43,2.28,1.45,1.45,0,0,0,1.34.75,2.08,2.08,0,0,0,1-.25l.11,0c.11,0,.2.08.27.23a1.39,1.39,0,0,1,.09.5.43.43,0,0,1-.29.4,3.41,3.41,0,0,1-.53.16,3,3,0,0,1-.68.07A2.63,2.63,0,0,1,90.49,47.91Z" transform="translate(-0.93 -1.45)"/><path class="cls-2" d="M95.41,48.74a.48.48,0,0,1-.08-.29V41.16a.46.46,0,0,1,.08-.29.35.35,0,0,1,.27-.09H99c.17,0,.26.14.26.41v.23c0,.28-.09.42-.26.42H96.59v2.34h2.17c.17,0,.25.14.25.42v.23c0,.27-.08.41-.25.41H96.59v2.53H99a.21.21,0,0,1,.2.1.6.6,0,0,1,.06.31v.23a.65.65,0,0,1-.06.32.21.21,0,0,1-.2.1H95.68A.35.35,0,0,1,95.41,48.74Z" transform="translate(-0.93 -1.45)"/><path class="cls-2" d="M101.06,48.75a2.34,2.34,0,0,1-.82-.41.57.57,0,0,1-.1-.13.38.38,0,0,1,0-.16,1.27,1.27,0,0,1,.1-.5c.07-.18.15-.26.24-.26a.24.24,0,0,1,.13,0l.12.06a2.27,2.27,0,0,0,1.36.43,1.28,1.28,0,0,0,.87-.3,1.07,1.07,0,0,0,.34-.85,1.09,1.09,0,0,0-.29-.8,3.35,3.35,0,0,0-.86-.58,7.2,7.2,0,0,1-1-.61,2.13,2.13,0,0,1-.62-.71,2.29,2.29,0,0,1-.23-1.07,2.11,2.11,0,0,1,.66-1.64,2.45,2.45,0,0,1,1.72-.6,3.4,3.4,0,0,1,.78.1,2.59,2.59,0,0,1,.65.27.24.24,0,0,1,.12.21,1.29,1.29,0,0,1-.12.49c-.07.19-.15.29-.24.29a.57.57,0,0,1-.2-.07,2.37,2.37,0,0,0-1-.21,1.21,1.21,0,0,0-.84.29.94.94,0,0,0-.32.77,1.17,1.17,0,0,0,.15.61,1.46,1.46,0,0,0,.41.41,6.25,6.25,0,0,0,.74.44,6.45,6.45,0,0,1,.92.58,2,2,0,0,1,.57.69,2.19,2.19,0,0,1,.22,1,2.22,2.22,0,0,1-.66,1.69,2.42,2.42,0,0,1-1.77.64A3.4,3.4,0,0,1,101.06,48.75Z" transform="translate(-0.93 -1.45)"/></svg>