<?xml version="1.0" encoding="utf-8"?>
<!-- Generator: Adobe Illustrator 23.0.1, SVG Export Plug-In . SVG Version: 6.00 Build 0)  -->
<svg version="1.1" id="Layer_1" xmlns="http://www.w3.org/2000/svg" xmlns:xlink="http://www.w3.org/1999/xlink" x="0px" y="0px"
	 viewBox="0 0 156 66" style="enable-background:new 0 0 156 66;" xml:space="preserve">
<style type="text/css">
	.st0{fill:#FFFFFF;}
</style>
<g>
	<path class="st0" d="M154.1,2c-1.2-1.5-1.8-0.9-0.9,0c0.6,0.6,0,2-0.1,2.3c-2.9,6.8-5.4,5.9-9.4,6.4c-0.2-0.1-0.4-0.1-0.7-0.1
		c-0.8,0-1.6-0.1-2.3,0c-1.2,0.1-2.4,0.1-3.5,0.7c-0.6,0.3-1,0.8-1.4,1.3c-1.3,2.1-2.9,2.9-4.2,4.6c-0.2,0.3-1.9,1.5-2.1,1.8
		c-0.3-0.5-0.1-1.2-0.4-1.7c-0.1-0.2-2.2-1.7-2.5-1.8c-0.9-0.4-0.6,0.4-1.6-0.1c-0.6-0.2-1.5-0.7-2.8-0.7c-0.5,0-2.2,0.5-2.6,0.8
		c-2.3,1.5-1.2,1.6-1.7,2.2c-0.8,0.9-4.7-0.1-4.7,1c0,0.3-0.6,1.9,1.3,3c1,0.4,2.6,2,4.9,1.5c1.1-0.5,0.2,0.1,0.2,0.1
		c-0.1,0.2-0.3,0.3-0.6,0.5c-0.3,0-1.7-0.2-2.5,0.1c-0.8,0.4-2.2,0.9-1.6,1.3c0.4,0.3,0.7,0.2,0.9,0.2c0,0.1,0.3,0.2,0.4,0.4
		c0.6,0.2,3.5-0.3,4.1,0.2c0.2,0.2,0.4,0.4,0.3,0.7c-0.6,2.5,0.2,2.7-0.1,3.4c-0.8,2-0.9,4-1.7,4.8c-1,1-0.8,0.7-1.9,1.6
		c-0.5,0.4-1,1.1-1.7,1.3c-0.6,0.2-3.1,1.2-3.8,1.2c-1.1,0.1-1.2,0.2-2.2,0.7c-0.3,0.1-1.2,0.6-1.5,0.8c-0.5,0.4-0.9,1.5-0.3,1.8
		c1.6,1,4.6,0.5,4.5-0.4c0.6-0.3,3.4-1.4,4-1.6c0.3-0.1,1.6-1,1.9-1.2c1.2-0.6,2.2-0.1,3.4-0.7c0.4-0.2,0.9-0.9,1.3-1.2
		c0.7-0.7,0.7-1.6,1.3-1.7c0.5-0.2,3.5,0.5,5.2-0.4c0.1,4-0.8,7.4-1.5,7.8c-0.2,0.1-0.4,1.6-0.5,1.8c-0.4,0.7-0.6,0.8-0.9,1.5
		c-0.3,0.5,0.6,2.5,1.7,2.2c1.1,1.5,2,0.2,3.3-0.4c0.6-0.1,0-1.7,0.1-2.3c-1.3-1.7,1.7-9,1.7-10.1c0-0.2-0.6-1.1,1.5-2
		c3-3.2,2.2,0.6,1.6,2c-1.1,0.6-1.9,0.8-1.5,1.8c0.4,0.5,2.9,0.6,3.3,0.2c0.5-0.5,0.1-1.3,0.6-1.8c0.2-0.2,0.4-2.9,0.5-3.2
		c0.5-1.1-0.2-1.1-0.1-1.8c0.1-0.9,0.2-1.3,0.4-1.5c0.5-0.8,0.4-0.3,0.9-1.2c0.4-0.9,1.3-1.9,2-2.8c0.2-0.2,0.6,1.3,0.7,1.6
		c0.7,1.1,1.4,2.1,2,3.2c0.2,0.4,0.5,1.1,0.6,1.5c0.2,1.3,0.3,2.6,0.5,3.9c0.2,1.1,0.7,2.1,0.1,3c-0.1,0.2-0.2,0.4-0.3,0.6
		c-0.2,0.5,0.5,1,0.9,1.1c0.9,0.8,1.9,0.1,2.8-0.3c0.4-0.2,0.2-0.8,0.1-1.2c-0.1-0.4-0.3-0.3-0.4-0.7c-0.2-0.6-0.5-0.7-0.9-1.9
		c-0.1-0.2,0.1-0.4,0.1-0.6c-0.2-0.9-0.4-1.8-0.7-2.7c-0.2-0.7-0.3-1.9-0.2-2.6c0.1-1.3,0.1-2.6-0.2-3.8c-0.2-0.8-0.2-1.5,0-2.3
		c0.2-0.5,0.3-1,0.4-1.5c0.2-1.2,0.6-2.3,0.6-3.5c0-1.7-0.9-4.7-1.6-6.2C151.3,13.4,156.1,4.5,154.1,2z"/>
	<path class="st0" d="M119.3,41.2c-1.6,0-2.9,1.3-2.9,2.9s1.3,2.9,2.9,2.9s2.9-1.3,2.9-2.9C122.2,42.5,120.9,41.2,119.3,41.2z"/>
</g>
<path class="st0" d="M3.9,32.5c-0.6-0.1-1.1-0.5-1.1-1c0.2-2.6,0.5-6.9,0-11.5c-0.1-0.6,0.8-1,1.4-1.1c1.5-0.3,3.6-0.1,6.1-0.1
	c3.9,0,9.5,0.7,9.4,6.5c0,5.5-4.5,7-8.8,7.3C8.4,32.8,6.6,32.8,3.9,32.5z M11.5,30c0.6-0.6,0.8-2.2,0.8-4.3
	c-0.1-3.2-0.8-3.5-1.2-3.8c-0.4-0.2-1.3-0.2-1.3,0.3c-0.2,2-0.2,5.9,0,7.8C9.8,30.7,10.6,30.8,11.5,30z"/>
<path class="st0" d="M20.4,27.5c0-3.1,3.1-5.5,7-5.5s6.9,2.5,6.9,5.5c0,3.1-3.1,5.5-6.9,5.5S20.4,30.5,20.4,27.5z M28.7,27
	c0-1.6-0.6-3.8-1.3-3.7c-0.7,0-1.2,1.9-1.3,3.7c0,1.5,0.4,4.6,1.4,4.6C28.4,31.6,28.7,28.8,28.7,27z"/>
<path class="st0" d="M51.2,32.1c-1.7-0.3-1.6-1.9-1.7-2.5c-0.2-1,0.2-1.3,0.9-1c0,0,2,1.1,4.1,1.2c1.9,0.1,2.6,0,2.9-0.1
	c0.8-0.3,0.9-1,0-1.4c-1.1-0.5-3-0.9-4.5-1.4c-1.5-0.6-3.2-1.6-3.2-3.6c0-1.8,1.8-4.4,6.9-4.6c3.2-0.1,5.5,0.1,7.3,0.7
	c0.5,0.2,1.6,0.4,0.9,1.1c-0.3,0.4-1.8,1.6-2.6,1.2c-0.8-0.4-2.2-0.6-3.3-0.6c-1.1,0-1.5,1.3-0.3,1.7c1.5,0.5,3,0.7,4.6,1.2
	c2.3,0.7,3.8,2.2,3.2,4.8c-0.4,1.9-2.7,3.9-8,4.1C55.7,32.9,53,32.5,51.2,32.1z"/>
<path class="st0" d="M81.8,32.2c-1.3,0.5-1.6,0.8-5.3,0.7c-0.8,0-1.2-0.6-1.4-0.9c-0.1-0.2-0.1-0.2-0.4,0c-1.1,0.7-5.3,2-7.2-0.3
	c-1.4-1.8,0.2-3.8,2.1-5.1c1.4-1,4-1.5,4.2-2.3c0.1-0.5-0.3-0.7-0.8-0.9c-0.2,0-0.5-0.1-0.9,0c-0.3,0-0.7,0-0.8-0.2
	c-0.1-0.3,0.2-0.8,0.4-0.8c2.3-0.3,5.7-0.2,6.6,0c1.3,0.2,2.2,1.2,2.1,2.5c-0.2,1.8-0.1,4.6,0,5.8c0,1,0.8,1,1.5,0.9
	C82.2,31.5,82.3,32,81.8,32.2z M73,28.5c-0.1,0.9,0.2,1.4,0.7,1.8c0.5,0.3,1.1-0.1,1.2-0.3c0.1-1.3,0-2,0.1-3.1
	c0-0.6-0.8-0.4-1.1-0.2C73.4,27,73,27.6,73,28.5z"/>
<path class="st0" d="M88.2,26.6c-0.5,0-0.5,0.3-0.5,0.6c0,0.2,0.1,4.1,0.1,4.1c0,0.4,0,1-0.4,1.1c-1.8,0.5-3,0.3-4.1,0.1
	c-0.4-0.1-0.6-0.5-0.6-0.9c0.1-1.9,0,0.1,0.2-5.9c0.1-3-0.2-5.2,2.3-6.7c2.8-1.7,6.3-0.8,7.1-0.5c0.4,0.2,0.6,0.7,0.3,1
	c-0.2,0.3-1.3,0.3-1.7,0.2c-0.9,0-3.1,0.2-3.1,4.4c0,0.4,0,0.7,0.5,0.7c0.2,0,3.1-0.1,2.9,0.4c-0.1,0.4-0.6,1.3-1.6,1.3L88.2,26.6
	L88.2,26.6z"/>
<path class="st0" d="M102.5,32.5c-0.5,0.2-1.1,0.3-1.4,0.3c-3.8,0.3-9.7-1.4-9.6-5.5c0.2-3.5,2.8-4.8,5.7-5.2
	c3.5-0.4,6.4,0.9,7.7,2.8c0.6,0.8,0.5,1.9-0.9,1.9c-1.9,0-4.3,0.1-5.2,0.1c-1,0-1.7,0.4-1.7,1.2c0.1,1.8,4.2,3,7.2,1.6
	c0.2-0.1,0.3,0.3,0.2,0.5C104.2,30.9,103.6,32,102.5,32.5z M99.3,25.6c0.6,0,0.6-0.5,0.4-0.7c-0.2-0.1-0.4-0.4-1.3-0.4
	c-0.9,0-1.2,0.3-1.3,0.5c-0.1,0.2,0,0.6,0.5,0.6L99.3,25.6L99.3,25.6z"/>
<path class="st0" d="M48.4,28.9c0-4.5,0.3-5.9,0.3-5.9c0-0.5-0.2-0.8-0.8-0.8c-1.8-0.2-3.9,0-3.9,0c-0.3,0-0.5,0.2-0.4,0.4
	c0,0.2-0.1,0.2-0.3,0.1c-0.9-0.5-4.7-1.4-7,1.4c-1.8,2-1.2,5.5,0.6,7.5c2.1,2.5,5.8,1.2,5.8,1.2c0.4-0.2,0.7,0.2,0.6,0.4
	c-0.4,1.6-1.3,2.7-3.1,3.3c-1.7,0.5-2.9-0.1-3.2-0.2c-0.3-0.1-0.5,0.1-0.6,0.5c-0.1,0.3,0.2,0.7,0.5,0.8c0.5,0.2,2.8,0.4,4.6,0.3
	c4-0.4,7-3.8,7-5.4C48.5,31.2,48.4,30,48.4,28.9C48.4,28.9,48.4,28.9,48.4,28.9z M43.1,30.7c-0.1,0.6-0.8,1.2-1.5,0.2
	c-0.8-1.1-1.1-4.2-0.1-5.9c1-1.7,1.7-0.5,1.7,0.4C43.2,27.4,43.3,29.6,43.1,30.7z"/>
<g>
	<path class="st0" d="M2.4,47.9c-0.5-0.4-0.7-1-0.7-1.7v-5.5c0-0.2,0.2-0.3,0.5-0.3h0.2c0.3,0,0.5,0.1,0.5,0.3v5.5
		c0,0.4,0.1,0.7,0.4,0.9c0.3,0.2,0.6,0.4,1,0.4s0.7-0.1,1-0.4s0.4-0.6,0.4-0.9v-5.5c0-0.2,0.2-0.3,0.5-0.3h0.2
		c0.3,0,0.5,0.1,0.5,0.3v5.5c0,0.7-0.2,1.3-0.7,1.7c-0.5,0.4-1.1,0.6-1.9,0.6C3.5,48.5,2.9,48.3,2.4,47.9z"/>
	<path class="st0" d="M8.5,48.2v-7.5c0-0.2,0.2-0.3,0.5-0.3h0.3c0.1,0,0.2,0,0.3,0c0.1,0,0.1,0.1,0.2,0.2l2.5,4.7
		c0.1,0.2,0.2,0.5,0.3,0.8l0.1,0c-0.1-0.3-0.1-0.5-0.1-0.8v-4.7c0-0.2,0.2-0.3,0.5-0.3h0.2c0.3,0,0.5,0.1,0.5,0.3v7.5
		c0,0.2-0.2,0.3-0.5,0.3H13c-0.2,0-0.4-0.1-0.5-0.2l-2.6-4.9c-0.1-0.2-0.2-0.4-0.3-0.7l-0.1,0c0.1,0.3,0.1,0.5,0.1,0.8v4.8
		c0,0.2-0.2,0.3-0.5,0.3H9C8.6,48.5,8.5,48.4,8.5,48.2z"/>
	<path class="st0" d="M15.4,48.4c-0.1-0.1-0.1-0.2-0.1-0.3v-7.3c0-0.1,0-0.2,0.1-0.3s0.1-0.1,0.3-0.1h2c1.9,0,2.9,1.3,2.9,4
		c0,1.4-0.2,2.4-0.8,3.1c-0.5,0.6-1.2,1-2.1,1h-2C15.5,48.5,15.5,48.4,15.4,48.4z M17.6,47.4c0.5,0,0.9-0.2,1.2-0.7
		c0.3-0.5,0.4-1.2,0.4-2.3c0-2-0.5-3-1.6-3h-1v5.9L17.6,47.4L17.6,47.4z"/>
	<path class="st0" d="M22,48.4c0-0.1-0.1-0.2-0.1-0.3v-7.3c0-0.1,0-0.2,0.1-0.3s0.1-0.1,0.3-0.1h3.3c0.2,0,0.2,0.1,0.2,0.4V41
		c0,0.3-0.1,0.4-0.2,0.4h-2.4v2.3h2.2c0.2,0,0.2,0.1,0.2,0.4v0.2c0,0.3-0.1,0.4-0.2,0.4h-2.2v2.5h2.4c0.1,0,0.2,0,0.2,0.1
		c0,0.1,0.1,0.2,0.1,0.3V48c0,0.2,0,0.2-0.1,0.3c0,0.1-0.1,0.1-0.2,0.1h-3.3C22.2,48.5,22.1,48.4,22,48.4z"/>
	<path class="st0" d="M27.2,48.2v-7.4c0-0.2,0.1-0.4,0.4-0.4h1.8c0.7,0,1.3,0.2,1.7,0.5c0.4,0.3,0.6,0.9,0.6,1.6
		c0,0.9-0.4,1.6-1.1,1.9v0c0.2,0.1,0.3,0.2,0.4,0.5s0.2,0.5,0.4,0.9l0.7,2.2c0,0,0,0.1,0,0.1c0,0,0,0,0,0.1c0,0.2-0.2,0.2-0.5,0.2
		h-0.2c-0.1,0-0.2,0-0.3-0.1s-0.1-0.1-0.2-0.2L30.1,46c-0.1-0.4-0.2-0.6-0.4-0.7s-0.4-0.2-0.7-0.2h-0.6v3.1c0,0.2-0.2,0.3-0.5,0.3
		h-0.2C27.4,48.5,27.2,48.4,27.2,48.2z M29.4,44c0.2,0,0.5-0.1,0.6-0.4c0.2-0.2,0.3-0.6,0.3-0.9c0-0.4-0.1-0.7-0.2-0.9
		c-0.2-0.2-0.4-0.3-0.7-0.3h-1V44C28.4,44,29.4,44,29.4,44z"/>
	<path class="st0" d="M37.9,44.4v3.3c0,0.3-0.2,0.5-0.7,0.6c-0.4,0.2-0.9,0.2-1.5,0.2c-1,0-1.7-0.3-2.2-1c-0.5-0.7-0.7-1.7-0.7-3.1
		c0-1.4,0.2-2.5,0.8-3.1s1.3-1,2.3-1c0.3,0,0.6,0,0.9,0.1c0.3,0.1,0.5,0.2,0.7,0.3c0.2,0.1,0.3,0.2,0.3,0.3c0,0.1-0.1,0.3-0.2,0.5
		s-0.2,0.3-0.3,0.3c0,0-0.1,0-0.2-0.1c-0.1-0.1-0.3-0.2-0.5-0.2c-0.2-0.1-0.4-0.1-0.6-0.1c-0.6,0-1.1,0.2-1.4,0.8
		c-0.3,0.5-0.4,1.2-0.4,2.2c0,2,0.6,3,1.7,3c0.3,0,0.6,0,0.9-0.1V45h-0.9c-0.2,0-0.2-0.1-0.2-0.4v-0.2c0-0.3,0.1-0.4,0.2-0.4h1.8
		C37.8,44,37.9,44.1,37.9,44.4z"/>
	<path class="st0" d="M39.4,48.2v-7.4c0-0.2,0.1-0.4,0.4-0.4h1.8c0.7,0,1.3,0.2,1.7,0.5c0.4,0.3,0.6,0.9,0.6,1.6
		c0,0.9-0.4,1.6-1.1,1.9v0c0.2,0.1,0.3,0.2,0.4,0.5s0.2,0.5,0.4,0.9l0.7,2.2c0,0,0,0.1,0,0.1c0,0,0,0,0,0.1c0,0.2-0.2,0.2-0.5,0.2
		h-0.2c-0.1,0-0.2,0-0.3-0.1S43,48.3,43,48.3L42.4,46c-0.1-0.4-0.2-0.6-0.4-0.7s-0.4-0.2-0.7-0.2h-0.6v3.1c0,0.2-0.2,0.3-0.5,0.3H40
		C39.6,48.5,39.4,48.4,39.4,48.2z M41.7,44c0.2,0,0.5-0.1,0.6-0.4c0.2-0.2,0.3-0.6,0.3-0.9c0-0.4-0.1-0.7-0.2-0.9
		c-0.2-0.2-0.4-0.3-0.7-0.3h-1V44C40.7,44,41.7,44,41.7,44z"/>
	<path class="st0" d="M45.8,47.5c-0.5-0.7-0.7-1.7-0.7-3.1c0-2.7,1-4.1,2.9-4.1c2,0,2.9,1.4,2.9,4.1c0,2.7-1,4.1-2.9,4.1
		C47,48.5,46.3,48.2,45.8,47.5z M49.2,46.8c0.3-0.5,0.4-1.3,0.4-2.3s-0.1-1.8-0.4-2.3s-0.7-0.7-1.2-0.7c-0.5,0-1,0.2-1.2,0.7
		c-0.3,0.5-0.4,1.2-0.4,2.3s0.1,1.8,0.4,2.3c0.3,0.5,0.7,0.7,1.2,0.7C48.5,47.5,48.9,47.2,49.2,46.8z"/>
	<path class="st0" d="M52.8,47.9c-0.5-0.4-0.7-1-0.7-1.7v-5.5c0-0.2,0.2-0.3,0.5-0.3h0.2c0.3,0,0.5,0.1,0.5,0.3v5.5
		c0,0.4,0.1,0.7,0.4,0.9c0.3,0.2,0.6,0.4,1,0.4s0.7-0.1,1-0.4s0.4-0.6,0.4-0.9v-5.5c0-0.2,0.2-0.3,0.5-0.3h0.2
		c0.3,0,0.5,0.1,0.5,0.3v5.5c0,0.7-0.2,1.3-0.7,1.7c-0.5,0.4-1.1,0.6-1.9,0.6C53.9,48.5,53.3,48.3,52.8,47.9z"/>
	<path class="st0" d="M58.9,48.2v-7.5c0-0.2,0.2-0.3,0.5-0.3h0.3c0.1,0,0.2,0,0.3,0c0.1,0,0.1,0.1,0.2,0.2l2.5,4.7
		c0.1,0.2,0.2,0.5,0.3,0.8l0.1,0C63,45.9,63,45.6,63,45.3v-4.7c0-0.2,0.2-0.3,0.5-0.3h0.2c0.3,0,0.5,0.1,0.5,0.3v7.5
		c0,0.2-0.2,0.3-0.5,0.3h-0.2c-0.2,0-0.4-0.1-0.5-0.2l-2.6-4.9c-0.1-0.2-0.2-0.4-0.3-0.7l-0.1,0c0.1,0.3,0.1,0.5,0.1,0.8v4.8
		c0,0.2-0.2,0.3-0.5,0.3h-0.2C59.1,48.5,58.9,48.4,58.9,48.2z"/>
	<path class="st0" d="M65.8,48.4c-0.1-0.1-0.1-0.2-0.1-0.3v-7.3c0-0.1,0-0.2,0.1-0.3s0.1-0.1,0.3-0.1h2c1.9,0,2.9,1.3,2.9,4
		c0,1.4-0.2,2.4-0.8,3.1c-0.5,0.6-1.2,1-2.2,1h-2C66,48.5,65.9,48.4,65.8,48.4z M68.1,47.4c0.5,0,0.9-0.2,1.2-0.7s0.4-1.2,0.4-2.3
		c0-2-0.6-3-1.6-3H67v5.9L68.1,47.4L68.1,47.4z"/>
	<path class="st0" d="M73.9,48.2v-7.4c0-0.1,0-0.2,0.1-0.3s0.1-0.1,0.3-0.1h3c0.2,0,0.2,0.1,0.2,0.4V41c0,0.3-0.1,0.4-0.2,0.4h-2.1
		v2.3h2c0.2,0,0.2,0.1,0.2,0.4v0.2c0,0.3-0.1,0.4-0.2,0.4h-2v3.3c0,0.2-0.2,0.3-0.5,0.3h-0.2C74.1,48.5,73.9,48.4,73.9,48.2z"/>
	<path class="st0" d="M78.9,48.4c-0.1-0.1-0.1-0.2-0.1-0.3v-7.3c0-0.1,0-0.2,0.1-0.3s0.1-0.1,0.3-0.1h3.3c0.2,0,0.2,0.1,0.2,0.4V41
		c0,0.3-0.1,0.4-0.2,0.4h-2.4v2.3h2.2c0.2,0,0.2,0.1,0.2,0.4v0.2c0,0.3-0.1,0.4-0.2,0.4h-2.2v2.5h2.4c0.1,0,0.2,0,0.2,0.1
		c0,0.1,0.1,0.2,0.1,0.3V48c0,0.2,0,0.2-0.1,0.3s-0.1,0.1-0.2,0.1h-3.3C79,48.5,78.9,48.4,78.9,48.4z"/>
	<path class="st0" d="M84,48.2v-7.5c0-0.2,0.2-0.3,0.5-0.3h0.3c0.1,0,0.2,0,0.3,0c0.1,0,0.1,0.1,0.2,0.2l2.5,4.7
		c0.1,0.2,0.2,0.5,0.3,0.8l0.1,0c-0.1-0.3-0.1-0.5-0.1-0.8v-4.7c0-0.2,0.2-0.3,0.5-0.3h0.2c0.3,0,0.5,0.1,0.5,0.3v7.5
		c0,0.2-0.2,0.3-0.5,0.3h-0.2c-0.2,0-0.4-0.1-0.5-0.2l-2.6-4.9c-0.1-0.2-0.2-0.4-0.3-0.7l-0.1,0c0.1,0.3,0.1,0.5,0.1,0.8v4.8
		c0,0.2-0.2,0.3-0.5,0.3h-0.2C84.2,48.5,84,48.4,84,48.2z"/>
	<path class="st0" d="M91.3,47.5c-0.5-0.7-0.7-1.7-0.7-3.1c0-1.4,0.2-2.4,0.8-3.1c0.5-0.7,1.3-1,2.3-1c0.2,0,0.4,0,0.6,0.1
		s0.4,0.1,0.5,0.1c0.1,0,0.2,0.1,0.2,0.1s0.1,0.1,0.1,0.2c0,0.2-0.1,0.4-0.1,0.5s-0.2,0.2-0.3,0.2c-0.3-0.1-0.6-0.2-0.9-0.2
		c-0.6,0-1.1,0.2-1.3,0.7s-0.4,1.2-0.4,2.3s0.1,1.8,0.4,2.3c0.3,0.5,0.7,0.7,1.3,0.7c0.3,0,0.7-0.1,1-0.2c0.1,0,0.1,0,0.1,0
		c0.1,0,0.2,0.1,0.3,0.2c0.1,0.2,0.1,0.3,0.1,0.5s-0.1,0.3-0.3,0.4c-0.1,0.1-0.3,0.1-0.5,0.2c-0.2,0-0.4,0.1-0.7,0.1
		C92.5,48.5,91.8,48.2,91.3,47.5z"/>
	<path class="st0" d="M96.2,48.4c-0.1-0.1-0.1-0.2-0.1-0.3v-7.3c0-0.1,0-0.2,0.1-0.3s0.1-0.1,0.3-0.1h3.3c0.2,0,0.2,0.1,0.2,0.4V41
		c0,0.3-0.1,0.4-0.2,0.4h-2.4v2.3h2.2c0.2,0,0.2,0.1,0.2,0.4v0.2c0,0.3-0.1,0.4-0.2,0.4h-2.2v2.5h2.4c0.1,0,0.2,0,0.2,0.1
		c0,0.1,0.1,0.2,0.1,0.3V48c0,0.2,0,0.2-0.1,0.3s-0.1,0.1-0.2,0.1h-3.3C96.3,48.5,96.3,48.4,96.2,48.4z"/>
	<path class="st0" d="M101.9,48.4c-0.3-0.1-0.6-0.2-0.8-0.4c-0.1,0-0.1-0.1-0.1-0.1s0-0.1,0-0.2c0-0.2,0-0.3,0.1-0.5
		c0.1-0.2,0.2-0.3,0.2-0.3c0,0,0.1,0,0.1,0c0.1,0,0.1,0,0.1,0.1c0.4,0.3,0.8,0.4,1.4,0.4c0.3,0,0.6-0.1,0.9-0.3s0.3-0.5,0.3-0.8
		c0-0.3-0.1-0.6-0.3-0.8c-0.2-0.2-0.5-0.4-0.9-0.6c-0.4-0.2-0.8-0.4-1-0.6c-0.2-0.2-0.5-0.4-0.6-0.7c-0.2-0.3-0.2-0.6-0.2-1.1
		c0-0.7,0.2-1.2,0.7-1.6c0.4-0.4,1-0.6,1.7-0.6c0.3,0,0.5,0,0.8,0.1s0.5,0.2,0.7,0.3c0.1,0,0.1,0.1,0.1,0.2c0,0.1,0,0.3-0.1,0.5
		c-0.1,0.2-0.2,0.3-0.2,0.3c0,0-0.1,0-0.2-0.1c-0.3-0.1-0.6-0.2-1-0.2c-0.3,0-0.6,0.1-0.8,0.3c-0.2,0.2-0.3,0.5-0.3,0.8
		c0,0.2,0.1,0.4,0.2,0.6s0.2,0.3,0.4,0.4c0.2,0.1,0.4,0.3,0.7,0.4c0.4,0.2,0.7,0.4,0.9,0.6c0.2,0.2,0.4,0.4,0.6,0.7
		c0.2,0.3,0.2,0.6,0.2,1c0,0.7-0.2,1.3-0.7,1.7s-1,0.6-1.8,0.6C102.5,48.5,102.2,48.5,101.9,48.4z"/>
</g>
</svg>
