<?xml version="1.0" encoding="utf-8"?>
<!-- Generator: Adobe Illustrator 23.0.1, SVG Export Plug-In . SVG Version: 6.00 Build 0)  -->
<svg version="1.1" id="Layer_1" xmlns="http://www.w3.org/2000/svg" xmlns:xlink="http://www.w3.org/1999/xlink" x="0px" y="0px"
	 viewBox="0 0 156 51" style="enable-background:new 0 0 156 51;" xml:space="preserve">
<style type="text/css">
	.st0{fill:#231F20;}
	.st1{fill:#FFFFFF;}
</style>
<g>
	<path class="st0" d="M154.08,2.01c-1.24-1.55-1.8-0.85-0.9,0c0.6,0.56,0.03,2.04-0.07,2.28c-2.94,6.77-5.43,5.9-9.41,6.37
		c-0.21-0.06-0.43-0.09-0.66-0.09c-0.77,0.01-1.55-0.05-2.32-0.01c-1.19,0.05-2.39,0.15-3.48,0.7c-0.57,0.29-1.04,0.75-1.38,1.29
		c-1.31,2.05-2.9,2.92-4.24,4.61c-0.21,0.27-1.86,1.48-2.06,1.75c-0.28-0.5-0.07-1.25-0.36-1.7c-0.1-0.16-2.25-1.66-2.49-1.77
		c-0.9-0.43-0.63,0.35-1.55-0.05c-0.57-0.25-1.52-0.67-2.77-0.67c-0.54,0-2.15,0.51-2.59,0.8c-2.33,1.54-1.18,1.65-1.65,2.17
		c-0.78,0.85-4.67-0.09-4.74,1c-0.02,0.29-0.6,1.9,1.26,3.04c1.01,0.44,2.58,2.03,4.87,1.46c1.09-0.49,0.22,0.15,0.22,0.15
		c-0.07,0.18-0.28,0.32-0.56,0.45c-0.34-0.05-1.74-0.22-2.49,0.12c-0.85,0.39-2.15,0.86-1.57,1.3c0.36,0.28,0.68,0.18,0.91,0.17
		c-0.01,0.14,0.3,0.24,0.37,0.41c0.6,0.17,3.48-0.29,4.08,0.2c0.21,0.18,0.36,0.39,0.3,0.66c-0.55,2.45,0.16,2.66-0.1,3.35
		c-0.78,2.04-0.89,4.05-1.65,4.82c-1.01,1.03-0.81,0.65-1.9,1.59c-0.5,0.44-1.02,1.06-1.65,1.27c-0.61,0.21-3.14,1.19-3.79,1.25
		c-1.11,0.11-1.2,0.24-2.23,0.67c-0.35,0.14-1.22,0.57-1.5,0.82c-0.46,0.42-0.86,1.5-0.34,1.83c1.63,1.04,4.57,0.45,4.49-0.41
		c0.56-0.28,3.43-1.42,4.04-1.62c0.26-0.08,1.58-1,1.87-1.15c1.18-0.6,2.19-0.1,3.37-0.7c0.42-0.21,0.94-0.92,1.27-1.25
		c0.74-0.73,0.65-1.64,1.35-1.7c0.53-0.23,3.51,0.54,5.15-0.36c0.12,4-0.78,7.37-1.46,7.75c-0.18,0.1-0.4,1.61-0.51,1.77
		c-0.43,0.67-0.56,0.82-0.92,1.52c-0.27,0.53,0.63,2.49,1.74,2.25c1.1,1.45,2,0.18,3.26-0.41c0.64-0.09-0.03-1.68,0.08-2.28
		c-1.27-1.66,1.73-8.97,1.72-10.07c0-0.19-0.64-1.09,1.46-2.02c2.96-3.22,2.17,0.56,1.61,1.98c-1.1,0.63-1.91,0.79-1.53,1.8
		c0.37,0.52,2.9,0.58,3.26,0.22c0.5-0.49,0.13-1.3,0.6-1.83c0.16-0.18,0.37-2.93,0.46-3.16c0.48-1.14-0.19-1.1-0.15-1.77
		c0.05-0.93,0.23-1.3,0.37-1.55c0.46-0.82,0.42-0.32,0.85-1.16c0.44-0.87,1.33-1.9,2.03-2.8c0.16-0.2,0.55,1.34,0.7,1.59
		c0.67,1.07,1.36,2.12,2.01,3.21c0.23,0.39,0.48,1.08,0.55,1.53c0.2,1.3,0.32,2.61,0.53,3.91c0.18,1.1,0.68,2.06,0.12,2.98
		c-0.12,0.2-0.23,0.4-0.31,0.62c-0.2,0.55,0.46,0.96,0.94,1.08c0.9,0.82,1.91,0.12,2.84-0.3c0.37-0.17,0.22-0.77,0.15-1.2
		c-0.07-0.44-0.26-0.27-0.41-0.69c-0.23-0.64-0.46-0.71-0.85-1.9c-0.06-0.18,0.11-0.41,0.06-0.6c-0.21-0.91-0.4-1.83-0.69-2.72
		c-0.22-0.7-0.34-1.85-0.25-2.57c0.15-1.29,0.07-2.57-0.21-3.84c-0.17-0.77-0.25-1.53,0-2.31c0.16-0.49,0.32-0.97,0.4-1.47
		c0.2-1.16,0.6-2.33,0.61-3.51c0.02-1.71-0.89-4.71-1.6-6.25C151.31,13.42,156.11,4.54,154.08,2.01z"/>
	<path class="st1" d="M119.29,41.19c-1.58,0-2.86,1.28-2.86,2.86c0,1.58,1.28,2.86,2.86,2.86c1.58,0,2.86-1.28,2.86-2.86
		C122.15,42.47,120.87,41.19,119.29,41.19z"/>
</g>
<path class="st0" d="M3.92,32.52c-0.56-0.08-1.12-0.46-1.06-0.99c0.23-2.59,0.53-6.87,0-11.53c-0.08-0.58,0.84-0.99,1.37-1.06
	c1.52-0.3,3.57-0.1,6.11-0.08c3.93,0.05,9.48,0.74,9.4,6.54c-0.05,5.48-4.54,7.02-8.75,7.28C8.45,32.85,6.58,32.85,3.92,32.52z
	 M11.47,29.99c0.58-0.56,0.84-2.23,0.79-4.31c-0.1-3.19-0.76-3.5-1.19-3.75c-0.35-0.2-1.27-0.23-1.32,0.33
	c-0.2,1.98-0.2,5.93,0,7.76C9.82,30.7,10.61,30.78,11.47,29.99z"/>
<path class="st0" d="M20.39,27.48c0-3.09,3.14-5.55,6.95-5.55s6.92,2.46,6.92,5.55c0,3.07-3.12,5.55-6.92,5.55
	S20.39,30.55,20.39,27.48z M28.66,27.04c-0.05-1.65-0.63-3.75-1.34-3.7c-0.74,0.05-1.24,1.85-1.32,3.7
	c-0.05,1.5,0.43,4.64,1.42,4.59C28.35,31.6,28.71,28.84,28.66,27.04z"/>
<path class="st0" d="M51.19,32.09c-1.7-0.33-1.62-1.93-1.72-2.51c-0.18-1.01,0.18-1.27,0.86-0.99c0,0,1.98,1.12,4.08,1.24
	c1.9,0.13,2.64,0.05,2.92-0.08c0.79-0.28,0.91-1.01,0.03-1.39c-1.09-0.48-3.02-0.94-4.49-1.44c-1.55-0.56-3.24-1.6-3.24-3.57
	c0-1.8,1.85-4.41,6.92-4.59c3.24-0.1,5.5,0.08,7.3,0.66c0.51,0.2,1.57,0.43,0.89,1.09c-0.3,0.35-1.77,1.57-2.64,1.17
	c-0.84-0.38-2.15-0.58-3.27-0.58c-1.06,0-1.52,1.29-0.3,1.7c1.55,0.53,2.99,0.71,4.61,1.22c2.26,0.71,3.8,2.23,3.19,4.77
	c-0.43,1.85-2.66,3.93-8.01,4.06C55.66,32.88,52.99,32.45,51.19,32.09z"/>
<path class="st0" d="M81.77,32.22c-1.27,0.48-1.57,0.79-5.35,0.66c-0.79-0.03-1.19-0.58-1.37-0.91c-0.1-0.2-0.13-0.2-0.38-0.05
	c-1.14,0.66-5.35,2.05-7.22-0.28c-1.39-1.77,0.2-3.75,2.1-5.07c1.39-0.96,4.01-1.5,4.18-2.31c0.1-0.53-0.28-0.74-0.81-0.86
	c-0.18-0.05-0.51-0.1-0.91-0.05c-0.33,0.03-0.66,0.05-0.76-0.25c-0.13-0.28,0.15-0.76,0.43-0.79c2.31-0.28,5.73-0.18,6.64,0
	c1.27,0.25,2.16,1.19,2.05,2.48c-0.15,1.8-0.05,4.61,0,5.75c0.03,0.96,0.84,0.96,1.47,0.94C82.15,31.46,82.28,32.02,81.77,32.22z
	 M73,28.52c-0.05,0.89,0.2,1.44,0.74,1.83c0.48,0.3,1.14-0.08,1.17-0.3c0.08-1.27,0-1.98,0.05-3.14c0.03-0.58-0.76-0.38-1.09-0.18
	C73.43,27,73.03,27.63,73,28.52z"/>
<path class="st0" d="M88.24,26.62c-0.48,0-0.48,0.28-0.48,0.58c0,0.18,0.08,4.08,0.08,4.13c0,0.41-0.03,1.04-0.43,1.14
	c-1.75,0.46-3.02,0.35-4.11,0.1c-0.41-0.1-0.56-0.51-0.56-0.94c0.05-1.93-0.03,0.08,0.18-5.88c0.1-3.02-0.15-5.25,2.26-6.69
	c2.81-1.7,6.31-0.81,7.07-0.48c0.41,0.18,0.63,0.74,0.35,1.04c-0.25,0.28-1.27,0.28-1.72,0.25c-0.94-0.05-3.09,0.23-3.09,4.36
	c0,0.38,0,0.71,0.46,0.66c0.25-0.03,3.09-0.13,2.94,0.38c-0.13,0.43-0.61,1.34-1.57,1.34H88.24z"/>
<path class="st0" d="M102.54,32.52c-0.51,0.23-1.09,0.28-1.44,0.3c-3.75,0.28-9.73-1.42-9.56-5.55c0.15-3.52,2.81-4.82,5.7-5.17
	c3.52-0.43,6.41,0.94,7.73,2.79c0.56,0.76,0.53,1.93-0.94,1.93c-1.95,0-4.31,0.08-5.17,0.08c-1.04,0-1.72,0.41-1.7,1.22
	c0.08,1.83,4.16,2.99,7.2,1.62c0.25-0.1,0.28,0.33,0.18,0.53C104.16,30.9,103.61,32.04,102.54,32.52z M99.27,25.58
	c0.61,0,0.58-0.46,0.38-0.66c-0.18-0.15-0.41-0.35-1.34-0.35c-0.89,0-1.19,0.33-1.29,0.46c-0.08,0.18-0.03,0.56,0.46,0.56H99.27z"/>
<path class="st0" d="M48.44,28.86c-0.05-4.55,0.28-5.87,0.28-5.87c0.03-0.54-0.25-0.78-0.81-0.83c-1.75-0.16-3.86,0-3.86,0
	c-0.28-0.03-0.46,0.21-0.43,0.36c0.03,0.23-0.08,0.23-0.33,0.08c-0.91-0.54-4.65-1.35-7.03,1.42c-1.75,2.02-1.17,5.46,0.58,7.48
	c2.13,2.46,5.79,1.24,5.79,1.24c0.42-0.15,0.65,0.15,0.64,0.38c-0.39,1.56-1.35,2.74-3.13,3.26c-1.69,0.49-2.87-0.1-3.16-0.18
	c-0.27-0.08-0.52,0.13-0.59,0.47c-0.09,0.34,0.16,0.65,0.47,0.78c0.5,0.21,2.8,0.44,4.58,0.28c3.99-0.36,7.05-3.84,7.04-5.39
	c-0.01-1.16-0.03-2.32-0.05-3.42C48.43,28.9,48.44,28.88,48.44,28.86z M43.11,30.67c-0.13,0.62-0.81,1.24-1.5,0.21
	c-0.76-1.14-1.12-4.19-0.1-5.95c0.99-1.68,1.73-0.47,1.73,0.36C43.23,27.36,43.33,29.61,43.11,30.67z"/>
<g>
	<path class="st1" d="M2.42,47.93c-0.46-0.41-0.69-0.99-0.69-1.74v-5.51c0-0.19,0.17-0.29,0.51-0.29h0.24c0.34,0,0.51,0.1,0.51,0.29
		v5.5c0,0.38,0.13,0.7,0.38,0.94c0.26,0.25,0.59,0.37,1,0.37s0.74-0.12,0.99-0.37c0.25-0.25,0.38-0.56,0.38-0.94v-5.5
		c0-0.19,0.17-0.29,0.51-0.29h0.24c0.34,0,0.51,0.1,0.51,0.29v5.51c0,0.74-0.23,1.32-0.69,1.74c-0.46,0.41-1.1,0.62-1.93,0.62
		C3.53,48.55,2.88,48.34,2.42,47.93z"/>
	<path class="st1" d="M8.48,48.2v-7.52c0-0.19,0.17-0.29,0.51-0.29h0.28c0.12,0,0.22,0.02,0.3,0.05c0.08,0.04,0.14,0.1,0.19,0.2
		l2.5,4.74c0.1,0.19,0.21,0.45,0.32,0.78l0.06-0.02c-0.06-0.28-0.09-0.55-0.09-0.8v-4.66c0-0.19,0.17-0.29,0.51-0.29h0.17
		c0.34,0,0.51,0.1,0.51,0.29v7.52c0,0.19-0.17,0.29-0.51,0.29h-0.23c-0.25,0-0.41-0.07-0.47-0.22l-2.59-4.91
		c-0.1-0.18-0.2-0.42-0.3-0.72l-0.06,0.02c0.06,0.28,0.09,0.54,0.09,0.77v4.77c0,0.19-0.17,0.29-0.51,0.29H8.99
		C8.65,48.49,8.48,48.39,8.48,48.2z"/>
	<path class="st1" d="M15.4,48.37c-0.05-0.06-0.08-0.16-0.08-0.29v-7.29c0-0.13,0.03-0.23,0.08-0.29c0.05-0.06,0.14-0.09,0.26-0.09
		h2c1.93,0,2.9,1.34,2.9,4.02c0,1.4-0.25,2.42-0.75,3.07c-0.5,0.64-1.22,0.96-2.15,0.96h-2C15.54,48.47,15.46,48.43,15.4,48.37z
		 M17.63,47.41c0.53,0,0.94-0.23,1.22-0.7c0.28-0.47,0.43-1.22,0.43-2.27c0-1.98-0.55-2.97-1.64-2.97h-1.05v5.93H17.63z"/>
	<path class="st1" d="M22.04,48.37c-0.05-0.06-0.08-0.16-0.08-0.29v-7.29c0-0.13,0.03-0.23,0.08-0.29c0.05-0.06,0.14-0.09,0.26-0.09
		h3.33c0.17,0,0.25,0.14,0.25,0.41v0.23c0,0.28-0.08,0.41-0.25,0.41h-2.43v2.35h2.17c0.17,0,0.25,0.14,0.25,0.41v0.23
		c0,0.28-0.08,0.41-0.25,0.41h-2.17v2.53h2.43c0.09,0,0.16,0.03,0.2,0.1c0.04,0.06,0.06,0.17,0.06,0.32v0.23
		c0,0.15-0.02,0.25-0.06,0.32c-0.04,0.07-0.1,0.1-0.2,0.1H22.3C22.18,48.47,22.09,48.43,22.04,48.37z"/>
	<path class="st1" d="M27.19,48.2v-7.41c0-0.25,0.12-0.38,0.36-0.38h1.77c0.74,0,1.31,0.17,1.69,0.49c0.38,0.33,0.58,0.87,0.58,1.61
		c0,0.92-0.36,1.57-1.07,1.94v0.05c0.16,0.08,0.3,0.24,0.43,0.46s0.25,0.52,0.37,0.9l0.71,2.24c0.01,0.03,0.02,0.06,0.02,0.09
		c0.01,0.03,0.01,0.05,0.01,0.08c0,0.15-0.18,0.22-0.53,0.22h-0.25c-0.13,0-0.24-0.02-0.33-0.06c-0.09-0.04-0.15-0.09-0.17-0.16
		l-0.67-2.24c-0.11-0.36-0.25-0.61-0.4-0.74c-0.15-0.13-0.37-0.2-0.66-0.2h-0.6v3.1c0,0.19-0.17,0.29-0.52,0.29h-0.22
		C27.36,48.49,27.19,48.39,27.19,48.2z M29.44,43.99c0.25,0,0.45-0.12,0.63-0.37c0.17-0.25,0.26-0.56,0.26-0.93
		c0-0.41-0.08-0.72-0.25-0.92c-0.17-0.2-0.4-0.3-0.69-0.3h-0.95v2.52H29.44z"/>
	<path class="st1" d="M37.91,44.36v3.32c0,0.28-0.22,0.5-0.66,0.64c-0.44,0.15-0.93,0.22-1.47,0.22c-0.99,0-1.73-0.33-2.23-1
		c-0.49-0.67-0.74-1.69-0.74-3.06c0-1.4,0.25-2.45,0.76-3.13c0.51-0.68,1.27-1.02,2.29-1.02c0.3,0,0.6,0.04,0.9,0.12
		c0.3,0.08,0.54,0.17,0.73,0.29c0.19,0.12,0.28,0.23,0.28,0.34c0,0.12-0.06,0.28-0.18,0.48c-0.12,0.2-0.22,0.29-0.32,0.29
		c-0.02,0-0.1-0.04-0.24-0.12c-0.14-0.08-0.3-0.15-0.48-0.21c-0.18-0.06-0.4-0.09-0.64-0.09c-0.64,0-1.1,0.25-1.38,0.75
		c-0.28,0.5-0.43,1.24-0.43,2.23c0,2.03,0.57,3.05,1.7,3.05c0.31,0,0.61-0.04,0.87-0.11v-2.31H35.8c-0.17,0-0.25-0.14-0.25-0.41
		v-0.23c0-0.28,0.08-0.41,0.25-0.41h1.76C37.79,43.98,37.91,44.11,37.91,44.36z"/>
	<path class="st1" d="M39.44,48.2v-7.41c0-0.25,0.12-0.38,0.36-0.38h1.77c0.74,0,1.31,0.17,1.69,0.49c0.38,0.33,0.58,0.87,0.58,1.61
		c0,0.92-0.36,1.57-1.07,1.94v0.05c0.16,0.08,0.3,0.24,0.43,0.46s0.25,0.52,0.37,0.9l0.71,2.24c0.01,0.03,0.02,0.06,0.02,0.09
		c0.01,0.03,0.01,0.05,0.01,0.08c0,0.15-0.18,0.22-0.53,0.22h-0.25c-0.13,0-0.24-0.02-0.33-0.06c-0.09-0.04-0.15-0.09-0.17-0.16
		l-0.67-2.24c-0.11-0.36-0.25-0.61-0.4-0.74c-0.15-0.13-0.37-0.2-0.66-0.2h-0.6v3.1c0,0.19-0.17,0.29-0.52,0.29h-0.22
		C39.61,48.49,39.44,48.39,39.44,48.2z M41.69,43.99c0.25,0,0.45-0.12,0.63-0.37c0.17-0.25,0.26-0.56,0.26-0.93
		c0-0.41-0.08-0.72-0.25-0.92c-0.17-0.2-0.4-0.3-0.69-0.3h-0.95v2.52H41.69z"/>
	<path class="st1" d="M45.8,47.53c-0.49-0.68-0.74-1.71-0.74-3.1c0-2.73,0.97-4.09,2.91-4.09c1.95,0,2.92,1.37,2.92,4.09
		c0,2.74-0.97,4.12-2.92,4.12C47.02,48.55,46.3,48.21,45.8,47.53z M49.21,46.75c0.27-0.49,0.41-1.26,0.41-2.32
		c0-1.06-0.14-1.83-0.41-2.31c-0.27-0.48-0.68-0.72-1.22-0.72c-0.55,0-0.96,0.24-1.23,0.71c-0.27,0.48-0.4,1.25-0.4,2.31
		c0,1.06,0.14,1.83,0.41,2.32c0.27,0.49,0.68,0.74,1.23,0.74C48.53,47.49,48.93,47.24,49.21,46.75z"/>
	<path class="st1" d="M52.83,47.93c-0.46-0.41-0.69-0.99-0.69-1.74v-5.51c0-0.19,0.17-0.29,0.51-0.29h0.24
		c0.34,0,0.51,0.1,0.51,0.29v5.5c0,0.38,0.13,0.7,0.38,0.94c0.26,0.25,0.59,0.37,1,0.37s0.74-0.12,0.99-0.37
		c0.25-0.25,0.38-0.56,0.38-0.94v-5.5c0-0.19,0.17-0.29,0.51-0.29h0.24c0.34,0,0.51,0.1,0.51,0.29v5.51c0,0.74-0.23,1.32-0.69,1.74
		c-0.46,0.41-1.1,0.62-1.93,0.62C53.94,48.55,53.29,48.34,52.83,47.93z"/>
	<path class="st1" d="M58.89,48.2v-7.52c0-0.19,0.17-0.29,0.51-0.29h0.28c0.12,0,0.22,0.02,0.3,0.05c0.08,0.04,0.14,0.1,0.19,0.2
		l2.5,4.74c0.1,0.19,0.21,0.45,0.32,0.78l0.06-0.02c-0.06-0.28-0.09-0.55-0.09-0.8v-4.66c0-0.19,0.17-0.29,0.51-0.29h0.17
		c0.34,0,0.51,0.1,0.51,0.29v7.52c0,0.19-0.17,0.29-0.51,0.29H63.4c-0.25,0-0.41-0.07-0.47-0.22l-2.59-4.91
		c-0.1-0.18-0.2-0.42-0.3-0.72l-0.06,0.02c0.06,0.28,0.09,0.54,0.09,0.77v4.77c0,0.19-0.17,0.29-0.51,0.29H59.4
		C59.06,48.49,58.89,48.39,58.89,48.2z"/>
	<path class="st1" d="M65.82,48.37c-0.05-0.06-0.08-0.16-0.08-0.29v-7.29c0-0.13,0.03-0.23,0.08-0.29c0.05-0.06,0.14-0.09,0.26-0.09
		h2c1.93,0,2.9,1.34,2.9,4.02c0,1.4-0.25,2.42-0.75,3.07c-0.5,0.64-1.22,0.96-2.15,0.96h-2C65.96,48.47,65.87,48.43,65.82,48.37z
		 M68.05,47.41c0.53,0,0.94-0.23,1.22-0.7c0.28-0.47,0.43-1.22,0.43-2.27c0-1.98-0.55-2.97-1.64-2.97H67v5.93H68.05z"/>
	<path class="st1" d="M73.95,48.2v-7.41c0-0.13,0.03-0.23,0.08-0.29c0.05-0.06,0.14-0.09,0.26-0.09h3.04c0.17,0,0.25,0.14,0.25,0.41
		v0.23c0,0.28-0.08,0.41-0.25,0.41H75.2v2.35h1.96c0.17,0,0.25,0.14,0.25,0.41v0.23c0,0.28-0.08,0.41-0.25,0.41H75.2v3.32
		c0,0.19-0.17,0.29-0.51,0.29h-0.24C74.12,48.49,73.95,48.39,73.95,48.2z"/>
	<path class="st1" d="M78.89,48.37c-0.05-0.06-0.08-0.16-0.08-0.29v-7.29c0-0.13,0.03-0.23,0.08-0.29c0.05-0.06,0.14-0.09,0.26-0.09
		h3.33c0.17,0,0.25,0.14,0.25,0.41v0.23c0,0.28-0.08,0.41-0.25,0.41h-2.43v2.35h2.17c0.17,0,0.25,0.14,0.25,0.41v0.23
		c0,0.28-0.08,0.41-0.25,0.41h-2.17v2.53h2.43c0.09,0,0.16,0.03,0.2,0.1c0.04,0.06,0.06,0.17,0.06,0.32v0.23
		c0,0.15-0.02,0.25-0.06,0.32c-0.04,0.07-0.1,0.1-0.2,0.1h-3.33C79.03,48.47,78.95,48.43,78.89,48.37z"/>
	<path class="st1" d="M84.01,48.2v-7.52c0-0.19,0.17-0.29,0.51-0.29h0.28c0.12,0,0.22,0.02,0.3,0.05c0.08,0.04,0.14,0.1,0.19,0.2
		l2.5,4.74c0.1,0.19,0.21,0.45,0.32,0.78l0.06-0.02c-0.06-0.28-0.09-0.55-0.09-0.8v-4.66c0-0.19,0.17-0.29,0.51-0.29h0.17
		c0.34,0,0.51,0.1,0.51,0.29v7.52c0,0.19-0.17,0.29-0.51,0.29h-0.23c-0.25,0-0.41-0.07-0.47-0.22l-2.59-4.91
		c-0.1-0.18-0.2-0.42-0.3-0.72l-0.06,0.02c0.06,0.28,0.09,0.54,0.09,0.77v4.77c0,0.19-0.17,0.29-0.51,0.29h-0.17
		C84.18,48.49,84.01,48.39,84.01,48.2z"/>
	<path class="st1" d="M91.28,47.55c-0.49-0.67-0.73-1.71-0.73-3.12c0-1.38,0.25-2.41,0.75-3.08c0.5-0.67,1.26-1.01,2.29-1.01
		c0.2,0,0.4,0.02,0.6,0.06c0.2,0.04,0.37,0.08,0.52,0.14c0.09,0.03,0.16,0.08,0.19,0.14s0.05,0.14,0.05,0.24
		c-0.01,0.18-0.05,0.37-0.12,0.55c-0.07,0.18-0.17,0.24-0.29,0.18c-0.29-0.14-0.6-0.21-0.92-0.21c-0.61,0-1.05,0.24-1.34,0.73
		s-0.43,1.24-0.43,2.27s0.14,1.79,0.43,2.28c0.29,0.5,0.73,0.74,1.34,0.74c0.35,0,0.68-0.08,0.99-0.24c0.05-0.01,0.08-0.02,0.1-0.02
		c0.11,0,0.21,0.08,0.27,0.23c0.07,0.15,0.1,0.32,0.1,0.5c0,0.18-0.1,0.32-0.3,0.4c-0.14,0.06-0.31,0.12-0.53,0.16
		c-0.21,0.05-0.44,0.07-0.68,0.07C92.53,48.55,91.77,48.21,91.28,47.55z"/>
	<path class="st1" d="M96.21,48.37c-0.05-0.06-0.08-0.16-0.08-0.29v-7.29c0-0.13,0.03-0.23,0.08-0.29s0.14-0.09,0.26-0.09h3.33
		c0.17,0,0.25,0.14,0.25,0.41v0.23c0,0.28-0.08,0.41-0.25,0.41h-2.43v2.35h2.17c0.17,0,0.25,0.14,0.25,0.41v0.23
		c0,0.28-0.08,0.41-0.25,0.41h-2.17v2.53h2.43c0.09,0,0.16,0.03,0.2,0.1c0.04,0.06,0.06,0.17,0.06,0.32v0.23
		c0,0.15-0.02,0.25-0.06,0.32c-0.04,0.07-0.1,0.1-0.2,0.1h-3.33C96.35,48.47,96.26,48.43,96.21,48.37z"/>
	<path class="st1" d="M101.86,48.39c-0.32-0.1-0.59-0.23-0.82-0.41c-0.05-0.05-0.08-0.09-0.1-0.13c-0.02-0.04-0.04-0.1-0.04-0.17
		c0-0.16,0.04-0.33,0.1-0.5c0.07-0.17,0.15-0.26,0.24-0.26c0.04,0,0.08,0.01,0.13,0.04c0.05,0.03,0.09,0.05,0.12,0.06
		c0.38,0.28,0.83,0.43,1.36,0.43c0.35,0,0.64-0.1,0.87-0.3c0.23-0.2,0.34-0.48,0.34-0.85c0-0.34-0.1-0.6-0.29-0.79
		c-0.19-0.19-0.48-0.39-0.86-0.59c-0.41-0.21-0.75-0.42-1-0.6c-0.25-0.19-0.46-0.43-0.62-0.71c-0.16-0.29-0.24-0.64-0.24-1.06
		c0-0.7,0.22-1.25,0.66-1.64c0.44-0.4,1.01-0.6,1.72-0.6c0.27,0,0.53,0.03,0.78,0.1c0.25,0.07,0.47,0.16,0.66,0.27
		c0.08,0.05,0.12,0.12,0.12,0.21c0,0.14-0.04,0.3-0.12,0.49c-0.08,0.19-0.16,0.29-0.24,0.29c-0.03,0-0.1-0.02-0.21-0.07
		c-0.31-0.14-0.63-0.21-0.98-0.21c-0.35,0-0.62,0.09-0.84,0.28c-0.21,0.19-0.32,0.45-0.32,0.78c0,0.24,0.05,0.44,0.16,0.6
		s0.24,0.3,0.41,0.42c0.17,0.12,0.41,0.26,0.74,0.44c0.38,0.2,0.68,0.39,0.92,0.58c0.24,0.18,0.43,0.42,0.58,0.7
		c0.15,0.28,0.22,0.63,0.22,1.04c0,0.71-0.22,1.27-0.66,1.69c-0.44,0.42-1.03,0.63-1.76,0.63
		C102.52,48.53,102.18,48.49,101.86,48.39z"/>
</g>
</svg>
